<svg width="892" height="718" viewBox="0 0 892 718" fill="none" xmlns="http://www.w3.org/2000/svg">
<path d="M9.67142 18.7994L9.5 14.8031C9.67142 18.7994 9.67213 18.7994 9.67354 18.7993L9.67992 18.7991L9.70535 18.798L9.80651 18.7936L10.2063 18.7765L11.766 18.7097C13.1323 18.6513 15.1365 18.5656 17.6881 18.4567C22.7913 18.2389 30.0839 17.9284 38.8412 17.5573C56.3561 16.8152 79.7296 15.8309 103.165 14.8622C126.602 13.8935 150.097 12.9406 167.856 12.2611C176.737 11.9213 184.177 11.6502 189.455 11.4797C191.575 11.4113 193.338 11.3593 194.703 11.3256C194.766 12.3764 194.814 13.671 194.845 15.1742C194.937 19.6593 194.876 25.6393 194.751 31.6577C194.626 37.6638 194.44 43.6594 194.284 48.1567C194.213 50.1848 194.149 51.9066 194.1 53.1852C188.084 56.1247 180.402 61.3637 174.252 68.8204C167.203 77.3668 162.05 88.9968 164.038 103.352C166.077 118.08 176.77 128.713 188.549 135.462C200.333 142.212 214.029 145.575 223.614 145.301C233.158 145.029 243.407 141.696 251.84 135.854C260.293 129.998 267.161 121.44 269.416 110.619C272.099 97.7425 270.111 88.5566 266.307 81.1612C264.451 77.5526 262.212 74.4648 260.09 71.7123C259.503 70.9509 258.935 70.2278 258.388 69.5298C256.888 67.6188 255.535 65.8951 254.328 64.0843C254.067 63.6924 253.587 62.5407 253.084 60.2882C252.611 58.1714 252.201 55.4822 251.855 52.3723C251.165 46.1621 250.766 38.5671 250.586 31.119C250.407 23.6811 250.447 16.4665 250.624 11.0413C250.705 8.57741 250.812 6.52076 250.935 4.99644C252.041 4.95037 253.441 4.90862 255.115 4.87145C259.699 4.76973 266.192 4.70539 273.979 4.67026C289.546 4.60005 310.203 4.64687 330.92 4.74061C362.999 4.88579 395.264 5.14392 408.851 5.25262C410.265 5.26393 411.477 5.27363 412.465 5.28141C412.565 6.56233 412.628 8.24851 412.649 10.2812C412.702 15.5327 412.473 22.6231 412.069 29.8293C411.665 37.0296 411.093 44.264 410.47 49.7935C410.158 52.5691 409.841 54.8471 409.539 56.4545C409.441 56.9756 409.351 57.387 409.274 57.6992C409.173 57.7705 409.062 57.8481 408.943 57.9315C408.612 58.1635 408.217 58.44 407.784 58.7461C406.516 59.643 404.84 60.8511 402.917 62.3318C399.081 65.2858 394.225 69.3539 389.619 74.2603C380.612 83.8572 371.596 97.7143 375.099 113.186C378.103 126.455 381.669 137.551 389.873 145.331C398.166 153.195 410.475 157.035 429.338 157.8C448.554 158.579 461.393 154.041 470.168 145.478C478.77 137.085 482.855 125.375 485.881 113.273C489.243 99.8238 485.194 89.4068 478.755 81.313C473.434 74.623 466.321 69.3542 460.675 65.1728C460.252 64.8593 459.837 64.5519 459.432 64.2504C459.427 64.101 459.421 63.9435 459.416 63.7783C459.365 62.2579 459.295 60.0811 459.217 57.4577C459.061 52.2094 458.874 45.18 458.749 38.0457C458.625 30.9026 458.563 23.6908 458.656 18.0642C458.702 15.2435 458.787 12.877 458.915 11.1375C458.928 10.9627 458.941 10.7968 458.954 10.6398C460.252 10.5127 462.033 10.3965 464.276 10.2941C469.444 10.0583 476.768 9.90834 485.569 9.82643C503.155 9.66273 526.468 9.77179 549.838 9.99048C586.528 10.3338 623.453 10.9493 638.269 11.1963C639.734 11.2207 640.982 11.2415 641.993 11.2581C642.119 12.615 642.211 14.4276 642.267 16.6235C642.405 22.0493 642.313 29.3415 642.126 36.7014C641.94 44.0457 641.659 51.3964 641.425 56.915C641.309 59.6732 641.203 61.9714 641.128 63.5793C641.117 63.8113 641.106 64.0289 641.096 64.2314C635.076 68.8732 627.032 76.4879 620.549 85.7461C613.534 95.763 607.958 108.267 609.529 121.282C611.358 136.435 616.543 148.04 626.216 155.961C635.792 163.802 649.167 167.531 666.321 168.299C684.422 169.11 699.667 161.12 709.865 149.648C719.999 138.247 725.402 123.109 723.461 109.248C721.937 98.3595 716.673 88.7384 711.541 81.7994C708.959 78.309 706.355 75.4211 704.16 73.3103C703.065 72.2571 702.039 71.3668 701.141 70.6809C700.836 70.4481 700.489 70.193 700.114 69.9478C700.069 69.7155 700.021 69.4355 699.971 69.1033C699.716 67.4218 699.49 64.9607 699.305 61.9049C698.937 55.8258 698.75 47.7562 698.75 39.6781C698.75 31.5991 698.937 23.5944 699.305 17.6438C699.473 14.9296 699.673 12.7282 699.896 11.169C702.19 11.0507 705.755 10.859 710.327 10.6132C728.082 9.65835 761.032 7.88642 793.803 6.42418C817.608 5.36205 841.409 4.45778 859.494 4.13063C868.547 3.96689 876.11 3.94892 881.51 4.12332C884.067 4.20593 886.058 4.32947 887.461 4.48777C887.505 5.09386 887.546 5.82194 887.585 6.67581C887.72 9.68661 887.807 14.0081 887.848 19.4833C887.929 30.4203 887.828 45.7978 887.594 64.1426C887.126 100.824 886.126 149.276 885.001 197.585C883.876 245.891 882.626 294.042 881.658 330.118C881.173 348.155 880.759 363.173 880.466 373.682C880.32 378.936 880.204 383.063 880.124 385.876L880.033 389.088L880.01 389.911L880.004 390.119L880.002 390.171L880.002 390.184C880.002 390.187 880.002 390.189 884 390.303L880.002 390.189L879.994 390.457L880.022 390.725C882.362 412.789 887 461.659 887 481.803V692.512C884.265 698.601 872.334 712.196 843.844 713.306C813.153 714.502 274.935 713.803 9.50754 713.303L8.51517 713.301L8.3874 713.368C8.35501 713.329 8.32065 713.286 8.28444 713.239C7.99733 712.862 7.63124 712.261 7.23475 711.342C5.58907 707.531 4 699.663 4 684.803C4 669.806 4.12497 504.058 4.31244 341.558C4.40617 260.308 4.51553 179.872 4.6327 119.498C4.69129 89.3113 4.75183 64.1419 4.81334 46.3951C4.84409 37.5211 4.87508 30.5063 4.90617 25.649C4.92172 23.2194 4.93726 21.3355 4.95274 20.0307C4.95777 19.6066 4.96275 19.2477 4.96764 18.9535C5.19813 18.8892 5.51203 18.8233 5.91876 18.774C6.66265 18.6839 7.44657 18.6799 8.07736 18.7059C8.38388 18.7186 8.63451 18.7374 8.80111 18.7522C8.884 18.7596 8.94487 18.7659 8.98011 18.7697L9.01241 18.7733L9.01293 18.7733C9.01499 18.7736 9.01531 18.7736 9.01382 18.7734L9.33651 18.8138L9.67142 18.7994ZM194.45 8.90465C194.451 8.90676 194.451 8.90899 194.452 8.91133C194.445 8.88877 194.445 8.88513 194.45 8.90465ZM700.259 9.31963C700.259 9.31953 700.256 9.32805 700.25 9.3442C700.25 9.34256 700.251 9.34096 700.251 9.3394C700.256 9.32607 700.259 9.31972 700.259 9.31963ZM697.201 11.2982C697.135 11.3014 697.068 11.3031 697 11.3031C697.039 11.3031 697.107 11.3014 697.201 11.2982Z" fill="white" stroke="black" stroke-width="8"/>
</svg>
