<svg width="888" height="174" viewBox="0 0 888 174" fill="none" xmlns="http://www.w3.org/2000/svg">
<path d="M1 174V5.5L193 11L195 57.5L186 63.5L168.5 81.5L161.5 105.5L180.5 136.5L221 148L244.5 136.5L261.5 114.5L257 85L244.5 63.5V6H407L412 10.5L407 63.5L387 81.5L372 110.5L387 148L432 157L463 148L478.5 120.5L475.5 92L453 70.5V10.5L639.5 13V70.5L616 97L609 126L624 157L648 168.5L689.5 164L707 148L716 117L707 92L692.5 70.5L695 13L888 5.5V174H1Z" fill="white"/>
<path d="M0.5 5.3C0.5 5.3 192 10.8031 194 11.3031C196 11.8031 194 59.8031 194 59.8031C182.5 64.6364 160.4 80.8031 164 106.803C167.6 132.803 202 145.803 219.5 145.303C237 144.803 257.5 133.003 261.5 113.803C266.5 89.8031 254 80.8031 247 70.3031C241.4 61.9031 242 6.80311 243.5 5.30311C245 3.80311 408.5 5.30327 411.5 5.30311C414.5 5.30294 411 62.3033 408.5 64.3031C406 66.303 368.929 89.4892 375 116.303C381 142.803 388.5 156.303 425.5 157.803C462.5 159.303 472 140.303 478 116.303C484 92.3032 463.833 79.6364 451.5 70.3031C451.5 70.3031 449.5 14.8029 451.5 11.3031C453.5 7.80327 638 11.3031 641 11.3031C644 11.3031 641 70.3031 641 70.3031C629.333 78.8031 606.7 101.603 609.5 124.803C613 153.803 629 166.803 662.5 168.303C696 169.803 719 138.803 715.5 113.803C712.7 93.8031 696 77.8029 693 76.8031C690 75.8032 690 11.3031 693 11.3031C696 11.3031 887.5 5 887.5 5" stroke="black" stroke-width="8"/>
</svg>
