<svg width="36" height="42" viewBox="0 0 36 42" fill="none" xmlns="http://www.w3.org/2000/svg">
<path d="M16.5537 18.2879C16.6156 18.2013 16.6652 18.1064 16.6983 18.0115C16.6611 18.1311 16.5991 18.2466 16.5123 18.3498C16.5247 18.3292 16.5371 18.3085 16.5537 18.2879Z" fill="black"/>
<path d="M33.9806 10.7627C34.6996 9.69007 35.084 8.42349 35.084 7.11566C35.084 3.48508 32.1251 0.526978 28.4843 0.526978C27.7694 0.526978 27.0668 0.642496 26.3974 0.865282C25.0625 0.415585 23.5624 0.41971 22.2442 0.861156C21.5747 0.63837 20.8763 0.526978 20.1696 0.526978C16.533 0.526978 13.57 3.48508 13.57 7.11566C13.57 8.42349 13.9584 9.69007 14.6734 10.7627C14.2188 11.4476 13.8964 12.2109 13.7229 13.0154C12.3137 12.6853 10.7557 12.838 9.4209 13.4568C8.55306 13.0525 7.60258 12.8421 6.63557 12.8421C2.99894 12.8421 0.0400391 15.796 0.0400391 19.4308C0.0400391 20.8706 0.502883 22.2403 1.35005 23.3708C0.502883 24.5012 0.0400391 25.8709 0.0400391 27.3108C0.0400391 29.9594 1.58974 32.2904 3.96182 33.3342C4.18911 36.7627 7.05295 39.4856 10.5449 39.4856C11.202 39.4856 11.8426 39.3907 12.4583 39.2051C13.7022 40.5789 15.4792 41.3793 17.3554 41.3793C19.2894 41.3793 21.0953 40.5418 22.3392 39.106C23.0459 39.3577 23.798 39.4856 24.546 39.4856C27.8396 39.4856 30.5754 37.0927 31.0671 33.916C33.4971 32.8969 35.084 30.537 35.084 27.8512C35.084 26.6177 34.7492 25.4377 34.1087 24.4022C34.7492 23.3666 35.084 22.1908 35.084 20.9531C35.084 19.7938 34.7864 18.6758 34.2161 17.6815C34.7864 16.6872 35.084 15.5691 35.084 14.4098C35.084 13.1061 34.6996 11.8354 33.9806 10.7627ZM31.906 11.4394C32.6251 12.2604 33.0177 13.3165 33.0177 14.4098C33.0177 15.3711 32.7201 16.2953 32.1498 17.075C31.8854 17.4381 31.8854 17.9249 32.1498 18.2879C32.7201 19.0677 33.0177 19.9918 33.0177 20.9531C33.0177 21.9845 32.6788 22.9541 32.0383 23.7627C31.7407 24.1381 31.7407 24.6662 32.0383 25.0417C32.6788 25.8503 33.0177 26.8239 33.0177 27.8512C33.0177 29.8604 31.7283 31.6015 29.8067 32.1832C29.3893 32.3111 29.0959 32.6865 29.0752 33.1197C28.9595 35.5332 26.9718 37.4228 24.546 37.4228C23.8187 37.4228 23.1244 37.2536 22.4797 36.9236C22.0086 36.6801 21.4342 36.8328 21.1408 37.2742C20.3019 38.5532 18.8885 39.3164 17.3554 39.3164C15.8801 39.3164 14.4915 38.5945 13.6443 37.3898C13.446 37.1051 13.1278 36.9483 12.7972 36.9483C12.6567 36.9483 12.5162 36.9772 12.3798 37.0391C11.8012 37.2949 11.1855 37.4228 10.5449 37.4228C8.0489 37.4228 6.01155 35.3929 6.01155 32.8969C6.01155 32.8185 6.01569 32.7401 6.01982 32.6618C6.04048 32.1956 5.74294 31.7706 5.29249 31.6303C3.38739 31.0445 2.10631 29.3076 2.10631 27.3108C2.10631 26.0978 2.58155 24.9591 3.44525 24.101C3.63948 23.9071 3.74692 23.6472 3.74692 23.3708C3.74692 23.0985 3.63948 22.8344 3.44525 22.6405C2.58155 21.7824 2.10631 20.6437 2.10631 19.4308C2.10631 16.9347 4.13952 14.9049 6.63557 14.9049C7.43315 14.9049 8.21833 15.1153 8.90433 15.5114C9.22667 15.697 9.61926 15.697 9.9416 15.5114C11.0615 14.8637 12.45 14.7399 13.6609 15.1442C13.7601 16.0436 14.0411 16.9017 14.4874 17.6856C13.9171 18.6758 13.6196 19.7938 13.6196 20.9531C13.6196 22.426 14.0948 23.8163 14.9916 24.9756C15.1941 25.2397 15.4999 25.3758 15.8098 25.3758C16.0288 25.3758 16.252 25.3057 16.4379 25.1613C16.8925 24.8147 16.9752 24.167 16.628 23.7173C16.0082 22.9211 15.6858 21.9639 15.6858 20.9531C15.6858 20.0125 15.9668 19.1172 16.5082 18.354C16.5082 18.3498 16.5123 18.3498 16.5123 18.3498C16.5247 18.3292 16.5371 18.3086 16.5537 18.2879C16.6156 18.2013 16.6652 18.1064 16.6983 18.0115C16.7107 17.9661 16.7231 17.9249 16.7314 17.8836C16.7355 17.863 16.7396 17.8383 16.7396 17.8176C16.752 17.731 16.752 17.6443 16.7438 17.5577C16.7396 17.533 16.7355 17.5041 16.7272 17.4793C16.7231 17.4381 16.7107 17.3968 16.6983 17.3556C16.6818 17.3102 16.6652 17.2648 16.6446 17.2235C16.6404 17.2194 16.6404 17.2194 16.6404 17.2194C16.6198 17.174 16.5908 17.1286 16.5619 17.0874C16.5578 17.0833 16.5578 17.0791 16.5537 17.075C15.9834 16.2994 15.6858 15.3752 15.6858 14.4098C15.6858 13.3248 16.0743 12.2769 16.7809 11.46C17.1405 11.0433 17.1074 10.4244 16.719 10.0449C16.0206 9.23212 15.6362 8.19246 15.6362 7.11566C15.6362 4.61963 17.6736 2.58981 20.1696 2.58981C20.7523 2.58981 21.3185 2.7012 21.864 2.91574C22.1119 3.01475 22.3888 3.01475 22.6367 2.91161C23.6864 2.48667 24.9344 2.48254 26.0089 2.91986C26.261 3.01888 26.5379 3.01888 26.79 2.91986C27.323 2.7012 27.8975 2.58981 28.4843 2.58981C30.9845 2.58981 33.0177 4.61963 33.0177 7.11566C33.0177 8.20896 32.6251 9.26513 31.906 10.0861C31.5672 10.4739 31.5672 11.0515 31.906 11.4394Z" fill="black"/>
</svg>
